<svg xmlns="http://www.w3.org/2000/svg" width="1277.472" height="958.861" viewBox="0 0 1277.472 958.861">
  <g id="_02" data-name="02" transform="translate(236.892 6.013) rotate(13)">
    <g id="Background_Complete" data-name="Background Complete" transform="translate(291.95 86.481)">
      <path id="Path_150" data-name="Path 150" d="M332.18,107.977H467.3s-11.94-21.742-46.731-18.5c-33.209,3.021-34.935-10.707-51.787-12.33S337.811,88.269,332.18,107.977Z" transform="translate(109.322 -77.012)" fill="#e0e0e0"/>
      <path id="Path_151" data-name="Path 151" d="M162.649,266.852s-13.543,7.316,6.165,35.593,32.531,41.84,32.531,41.84,3.74,6.679-2.055,8.59-19.173,1.644-20.817,9.268c-1.706,7.932,4.768,14.385,16.728,19.009s37.812,15.988,40.135,17.016,4.87,4.007,1.13,5.939-32.737,9.063-28.544,22.605,39.7,21.208,43.567,22.112,4.953,2.343,4.932,4.4-9.987,3.535-18.166,5.9-17.221,6.556-14.139,14.18,25.4,21.454,74.68,19.5l22.77-2.384,9.7-20.858c18.023-45.889,12.33-71.515,6.165-76.94s-13.111,1.767-18.023,8.713-9.6,15.865-11.549,15.207-2.939-2.158-2.528-6.165,4.87-39.991-6.556-48.416-27.7,16.6-30.825,19.5-5.035-.514-5.24-3.021-2.363-30.64-2.877-43.5-4.4-21.043-12.433-22.03-11.878,11.755-15.6,16.6-8.8-.884-8.8-.884-8.611-16.564-28.77-44.471-31.853-17.1-31.853-17.1" transform="translate(-74.324 121.317)" fill="#ebebeb"/>
      <path id="Path_152" data-name="Path 152" d="M312.1,481.657c-14.776-20.55-40.4-57.541-62.576-89.168s-42.251-60.233-56.924-80.865c-7.336-10.275-13.255-18.618-17.386-24.393l-4.727-6.658-1.212-1.726c-.267-.39-.39-.617-.39-.617s.164.185.452.575l1.274,1.685c1.11,1.541,2.733,3.74,4.829,6.576,4.11,5.692,10.275,13.995,17.57,24.27,14.776,20.55,34.935,49.115,57.089,80.742s47.738,68.658,62.411,89.27" transform="translate(-62.953 135.277)" fill="#e0e0e0"/>
      <path id="Path_153" data-name="Path 153" d="M177.12,312.83a8.693,8.693,0,0,1,1.644.226c1.048.185,2.548.493,4.418.9,3.72.8,8.816,2.055,14.385,3.535l14.385,3.843,4.357,1.151a6.8,6.8,0,0,1,1.582.473,7.458,7.458,0,0,1-1.644-.206c-1.048-.185-2.548-.493-4.418-.925-3.7-.843-8.8-2.055-14.385-3.637l-14.385-3.74-4.357-1.13a6.166,6.166,0,0,1-1.582-.493Z" transform="translate(-54.271 171.781)" fill="#e0e0e0"/>
      <path id="Path_154" data-name="Path 154" d="M197.627,341.318c-.206,0,1.911-10.686,4.706-23.756s5.24-23.653,5.425-23.612-1.911,10.666-4.727,23.756S197.812,341.318,197.627,341.318Z" transform="translate(-32.65 151.862)" fill="#e0e0e0"/>
      <path id="Path_155" data-name="Path 155" d="M213.12,361.143a6.888,6.888,0,0,1,.719-1.521l2.178-4.11c1.829-3.411,4.357-8.22,6.925-13.481s4.788-10.275,6.329-13.748l1.85-4.213a5.817,5.817,0,0,1,.76-1.521,9.211,9.211,0,0,1-.493,1.623c-.37,1.028-.925,2.487-1.644,4.3-1.438,3.617-3.555,8.549-6.165,13.892s-5.2,10.029-7.131,13.4c-.986,1.665-1.808,3.021-2.384,3.946a9.472,9.472,0,0,1-.945,1.438Z" transform="translate(-16.29 182.036)" fill="#e0e0e0"/>
      <path id="Path_156" data-name="Path 156" d="M193.76,342.391a5.183,5.183,0,0,1,1.541-.185l4.254-.247c3.576-.185,8.528-.37,13.995-.555s10.419-.288,14.015-.329h4.254a6.164,6.164,0,0,1,1.562,0,8.216,8.216,0,0,1-1.562.185l-4.233.247c-3.6.164-8.549.37-14.015.534s-10.419.288-14.015.329h-4.233a6.7,6.7,0,0,1-1.562.021Z" transform="translate(-36.715 201.528)" fill="#e0e0e0"/>
      <path id="Path_157" data-name="Path 157" d="M204.71,366.118a9.432,9.432,0,0,1,2.055-.226l5.446-.329c4.583-.247,10.933-.555,17.94-.843s13.358-.493,17.94-.617l5.446-.123a12.9,12.9,0,0,1,2.055,0,12.652,12.652,0,0,1-2.055.226l-5.446.329c-4.583.247-10.933.555-17.94.843s-13.358.493-17.94.616l-5.446.123a12.508,12.508,0,0,1-2.055,0Z" transform="translate(-25.162 225.703)" fill="#e0e0e0"/>
      <path id="Path_158" data-name="Path 158" d="M228.81,389.226a12.687,12.687,0,0,1,.863-1.952l2.589-5.24c2.178-4.418,5.138-10.522,8.22-17.365s5.754-13.09,7.645-17.653l2.24-5.384a14.192,14.192,0,0,1,.884-1.932,10.641,10.641,0,0,1-.637,2.055c-.452,1.315-1.13,3.185-2.055,5.466-1.767,4.6-4.357,10.912-7.46,17.755s-6.165,12.947-8.446,17.3c-1.151,2.178-2.055,3.946-2.795,5.138a13.983,13.983,0,0,1-1.048,1.808Z" transform="translate(0.264 200.129)" fill="#e0e0e0"/>
      <path id="Path_159" data-name="Path 159" d="M331.752,307.676c-24.455-27.435-22.112-67.035-12.844-100.922,1.541-5.672,2.343-11.837,6.165-16.194s11.035-6.288,15.577-2.672c3.761,3,4.439,8.364,5.836,13.008a34.3,34.3,0,0,0,10.275,15.947c3.185,2.754,7.4,4.953,11.467,3.843,5.569-1.562,7.747-8.22,9.063-13.913q3.637-15.885,7.316-31.771a55.157,55.157,0,0,1,5.692-16.44c3.041-4.973,8.22-9.042,13.892-9.268s11.693,4.459,11.508,10.275a54.059,54.059,0,0,1-1.5,7.11,6.165,6.165,0,0,0,2.158,6.432c2.055,1.212,4.747.144,6.843-1.13,7.213-4.336,12.947-10.768,18.393-17.242s10.83-13.111,17.632-18.1,15.31-8.22,23.551-6.74,15.7,8.549,15.865,17-6.412,15.515-13.029,20.776a130.229,130.229,0,0,1-32.2,18.886,10.645,10.645,0,0,0-5.528,3.7c-2.055,3.494.555,8.1,3.987,10.275,3.9,2.4,8.59,3.062,12.906,4.624s8.631,4.665,9.309,9.227c.945,6.35-5.343,11.282-11.056,14.139a111.856,111.856,0,0,1-36.456,10.892c-4.542.534-9.248.843-13.317,2.959s-7.3,6.761-6.165,11.241,6,7.008,10.563,7.213,9.042-1.212,13.584-1.788c8.487-1.11,18.5,1.808,21.824,9.741a18.5,18.5,0,0,1-1.85,16.44A42.416,42.416,0,0,1,439.291,297.2a112.2,112.2,0,0,1-54.335,21.7c-19.564,2.055-36.744-.288-53.163-11.118" transform="translate(88.419 -21.601)" fill="#f5f5f5"/>
      <path id="Path_160" data-name="Path 160" d="M324.22,307.033c4.439-13.234-.206-6.6,8.939-22.605a522.609,522.609,0,0,1,33.148-49.978q4.726-6.412,9.35-12.638c3.083-4.11,6.165-8.22,9.371-12.1A264.107,264.107,0,0,1,404.9,188.746c6.638-6.371,13.173-12.166,19.338-17.55s12-10.275,17.509-14.488a208.711,208.711,0,0,1,27.476-18.023c3.391-1.87,6.165-3.226,7.912-4.11l2.055-1.007.719-.308a3.967,3.967,0,0,1-.678.411l-2.055,1.11c-1.808.966-4.459,2.384-7.809,4.295a217.529,217.529,0,0,0-27.167,18.31c-5.466,4.254-11.262,9.165-17.386,14.55s-12.618,11.22-19.235,17.591a266.392,266.392,0,0,0-19.749,20.941c-3.206,3.8-6.165,7.891-9.309,12.043l-9.35,12.638A537.787,537.787,0,0,0,334.043,284.9c-9.165,15.968-4.562,9.227-9.083,22.379" transform="translate(100.924 -17.67)" fill="#e0e0e0"/>
      <path id="Path_161" data-name="Path 161" d="M354.032,203.534a12.876,12.876,0,0,1,0-2.548c0-1.644.267-4.11.534-6.925.534-5.857,1.562-13.892,2.713-22.749s2.055-16.892,2.487-22.729c.226-2.9.39-5.261.493-6.9a11.109,11.109,0,0,1,.267-2.528,12.52,12.52,0,0,1,.144,2.548c0,1.623,0,4.11-.144,6.925-.247,5.877-1.027,13.954-2.2,22.831s-2.2,16.646-3,22.605c-.349,2.733-.637,5.035-.863,6.884a11.862,11.862,0,0,1-.432,2.589Z" transform="translate(132.31 -11.456)" fill="#e0e0e0"/>
      <path id="Path_162" data-name="Path 162" d="M430.131,174.847a14.532,14.532,0,0,1-2.98-.329c-1.911-.288-4.685-.7-8.117-1.11-6.843-.863-16.44-1.706-26.88-2.2s-20.078-.493-27-.308c-3.452,0-6.165.206-8.22.288a18.05,18.05,0,0,1-3.021,0,16.316,16.316,0,0,1,3-.452c1.932-.206,4.727-.452,8.22-.617,6.925-.39,16.44-.493,27.085,0a269.235,269.235,0,0,1,26.941,2.528c3.411.514,6.165,1.048,8.076,1.438A15.6,15.6,0,0,1,430.131,174.847Z" transform="translate(132.247 20.868)" fill="#e0e0e0"/>
      <path id="Path_163" data-name="Path 163" d="M336.663,258.558a3.206,3.206,0,0,1-.288-1.007c-.164-.8-.37-1.767-.637-2.939-.514-2.548-1.192-6.165-1.952-10.851-1.541-9.186-3.267-21.948-4.994-36.066s-3.329-26.88-4.665-36.086c-.658-4.48-1.212-8.22-1.623-10.892-.164-1.192-.308-2.178-.432-2.98a5.685,5.685,0,0,1,0-1.048,3.867,3.867,0,0,1,.308,1.007l.617,2.939q.8,3.822,1.952,10.851c1.541,9.186,3.268,21.948,4.994,36.066s3.329,26.88,4.665,36.086c.678,4.48,1.213,8.22,1.624,10.912.185,1.171.308,2.158.432,2.959A4.112,4.112,0,0,1,336.663,258.558Z" transform="translate(98.632 7.05)" fill="#e0e0e0"/>
      <path id="Path_164" data-name="Path 164" d="M433.536,202.246a3.451,3.451,0,0,1-1.048.164l-3.041.288-11.179.9c-9.433.76-22.461,2.055-36.847,3.329s-27.455,2.445-36.99,3.021c-4.727.288-8.549.473-11.2.555h-3.041a3.307,3.307,0,0,1-1.069,0,4.213,4.213,0,0,1,1.048-.164l3.041-.288,11.179-.9c9.433-.76,22.461-2.055,36.847-3.329s27.435-2.445,36.99-3c4.747-.288,8.57-.493,11.22-.575h3.041a4.3,4.3,0,0,1,1.048,0Z" transform="translate(106.093 55.079)" fill="#e0e0e0"/>
      <path id="Path_165" data-name="Path 165" d="M479.847,304a4.419,4.419,0,0,1-.329.966l-1.13,2.733c-1.048,2.466-2.528,5.939-4.377,10.275l-15.844,36.641-.1.206h-.226l-49.773,8.22-16.687,2.733-.76.123.185-.74c4.11-16.009,7.789-30.825,10.974-43.258l.226.473L372.76,309.3l-8.076-3.678-2.055-.986a3.68,3.68,0,0,1-.7-.39l.74.267,2.158.884,8.22,3.473,29.387,12.741.329.144v.329c-3.124,12.536-6.8,27.291-10.789,43.32l-.575-.616,16.687-2.754,49.793-8.1-.349.267L473.7,317.728c1.952-4.357,3.514-7.809,4.624-10.275l1.233-2.692a6.825,6.825,0,0,1,.288-.76Z" transform="translate(140.709 162.465)" fill="#e0e0e0"/>
      <path id="Path_166" data-name="Path 166" d="M303.416,296.925,302.06,300.5l2.178,3.144-3.822-.185-2.322,3.041-1.007-3.7-3.617-1.254,3.206-2.1.082-3.843,3,2.4Z" transform="translate(234.486 225.56)" fill="#e0e0e0"/>
      <path id="Path_167" data-name="Path 167" d="M284.223,268.317l-.678,1.788,1.089,1.562-1.891-.082-1.171,1.5-.493-1.829-1.808-.637,1.6-1.048.041-1.891,1.5,1.192Z" transform="translate(219.505 196.093)" fill="#e0e0e0"/>
      <path id="Path_168" data-name="Path 168" d="M331.182,292.9l-.678,1.788,1.089,1.562-1.891-.1-1.171,1.521-.493-1.829-1.788-.637,1.582-1.048.041-1.911,1.5,1.192Z" transform="translate(269.07 222.004)" fill="#e0e0e0"/>
      <path id="Path_169" data-name="Path 169" d="M304.093,277.287l-.678,1.788,1.089,1.562-1.911-.082-1.151,1.5-.493-1.829-1.808-.637,1.6-1.048.041-1.891,1.48,1.192Z" transform="translate(240.468 205.557)" fill="#e0e0e0"/>
      <path id="Path_170" data-name="Path 170" d="M342.2,268.468l-.678,1.788,1.089,1.562-1.911-.1-1.151,1.521-.493-1.829-1.808-.637,1.582-1.048.062-1.911,1.48,1.192Z" transform="translate(280.675 196.23)" fill="#e0e0e0"/>
      <path id="Path_171" data-name="Path 171" d="M117.34,388.63h107.6s-9.515-17.324-37.217-14.8c-26.448,2.4-27.784-8.528-41.244-9.864S121.841,372.93,117.34,388.63Z" transform="translate(-117.34 225.612)" fill="#e0e0e0"/>
      <path id="Path_172" data-name="Path 172" d="M127.74,182.5H235.321s-9.515-17.3-37.217-14.8c-26.428,2.425-27.784-8.508-41.224-9.844S132.22,166.82,127.74,182.5Z" transform="translate(-106.368 8.161)" fill="#f5f5f5"/>
      <path id="Path_173" data-name="Path 173" d="M393.62,216.653h88.366s-7.809-14.221-30.558-12.166c-21.742,2.055-22.852-6.987-33.887-8.1S397.3,203.767,393.62,216.653Z" transform="translate(174.142 48.831)" fill="#f5f5f5"/>
    </g>
    <g id="Pencil" transform="translate(371.21 -0.156)">
      <path id="Path_174" data-name="Path 174" d="M439.211,424.479c4.4-33.106-18.886-60.438-47.985-76.858s-62.863-21.968-95-31.051c-30.312-8.611-60.459-21.187-82.9-43.3s-35.922-55.342-27.866-85.8c2.055-7.645,5.651-15.33,12.227-19.749s16.584-4.295,21.5,1.911c10.44,13.234-9.905,36.99,2.836,47.964,2.918,2.548,6.946,3.473,9.967,5.877,8.035,6.432,5.446,18.906,6.576,29.14,2.24,20.242,21.228,34.3,39.867,42.5,24.969,10.974,52.013,16.132,78.481,22.605s53.2,14.714,75.255,30.825,41.224,41.1,41.1,68.412c0,7.624-1.007,17-5.8,22.914s-10.871,7.172-17.776,3.925-11.714-8.22-10.44-19.276" transform="translate(-127.215 102.093)" fill="#b3eaf4"/>
      <g id="Group_18" data-name="Group 18" transform="translate(55.892 266.751)" opacity="0.8">
        <path id="Path_175" data-name="Path 175" d="M439.211,424.479c4.4-33.106-18.886-60.438-47.985-76.858s-62.863-21.968-95-31.051c-30.312-8.611-60.459-21.187-82.9-43.3s-35.922-55.342-27.866-85.8c2.055-7.645,5.651-15.33,12.227-19.749s16.584-4.295,21.5,1.911c10.44,13.234-9.905,36.99,2.836,47.964,2.918,2.548,6.946,3.473,9.967,5.877,8.035,6.432,5.446,18.906,6.576,29.14,2.24,20.242,21.228,34.3,39.867,42.5,24.969,10.974,52.013,16.132,78.481,22.605s53.2,14.714,75.255,30.825,41.224,41.1,41.1,68.412c0,7.624-1.007,17-5.8,22.914s-10.871,7.172-17.776,3.925-11.714-8.22-10.44-19.276" transform="translate(-183.107 -164.658)" fill="#b3eaf4"/>
      </g>
      <path id="Path_176" data-name="Path 176" d="M239.272,292.263c-1.048-12.33,8.1-22.955,18.5-28.668s22.318-8.056,33.024-13.132c26.613-12.618,43.525-42.313,44.779-72.748s-11.96-60.89-32.593-83.249c-8.405-9.083-18.721-18.619-18.845-31.01-.123-12.947,12.33-23.14,24.948-22.975s24.085,8.569,31.586,19.112S352.3,82.65,356.347,94.98c-2.877-5.179,3.021-11.57,8.734-11.015s10.275,5.3,13.707,10.029a107.066,107.066,0,0,1,20.55,71.618,100.9,100.9,0,0,1-31.853,65.638c-20.283,18.5-47.1,27.147-73.118,35.367l-54.273,17.118" transform="translate(-68.046 -28.919)" fill="#b3eaf4"/>
      <g id="Group_19" data-name="Group 19" transform="translate(171.144 11.56)" opacity="0.8">
        <path id="Path_177" data-name="Path 177" d="M239.272,292.263c-1.048-12.33,8.1-22.955,18.5-28.668s22.318-8.056,33.024-13.132c26.613-12.618,43.525-42.313,44.779-72.748s-11.96-60.89-32.593-83.249c-8.405-9.083-18.721-18.619-18.845-31.01-.123-12.947,12.33-23.14,24.948-22.975s24.085,8.569,31.586,19.112S352.3,82.65,356.347,94.98c-2.877-5.179,3.021-11.57,8.734-11.015s10.275,5.3,13.707,10.029a107.066,107.066,0,0,1,20.55,71.618,100.9,100.9,0,0,1-31.853,65.638c-20.283,18.5-47.1,27.147-73.118,35.367l-54.273,17.118" transform="translate(-239.19 -40.479)" fill="#b3eaf4"/>
      </g>
      <path id="Path_178" data-name="Path 178" d="M235.549,37.969a11.549,11.549,0,1,0,1.891-.6" transform="translate(-79.427 -32.49)" fill="#b3eaf4"/>
      <g id="Group_20" data-name="Group 20" transform="translate(148.975 4.604)" opacity="0.8">
        <path id="Path_179" data-name="Path 179" d="M235.549,37.969a11.549,11.549,0,1,0,1.891-.6" transform="translate(-228.402 -37.094)" fill="#b3eaf4"/>
      </g>
      <path id="Path_180" data-name="Path 180" d="M284.263,542.646c-6.658-13.789-.843-30.99,9.761-42.046s25.071-17.365,39.046-23.53c30.949-13.645,63.706-29.88,79.427-59.8,5.3-10.09,8.323-21.187,11.3-32.2,5.775-21.29,11.2-45.478-.411-64.24-3.35-5.4-8.364-10.275-14.611-11.3-7.131-1.274-14.385,2.651-18.824,8.384a41.574,41.574,0,0,0-7.172,20.2c-1.726,13.625-.288,27.5-1.726,41.1s-6.391,28.133-17.57,35.9c-13.707,9.556-33.25,7.419-46.546,17.509C306.19,440.84,302.1,454.9,293.716,465.5c-7.069,8.857-16.954,14.9-26,21.722s-17.8,15.125-20.879,26.037a30.825,30.825,0,0,0,42.929,36.23" transform="translate(-61.208 254.675)" fill="#b3eaf4"/>
      <g id="Group_21" data-name="Group 21" transform="translate(184.462 563.958)" opacity="0.8">
        <path id="Path_181" data-name="Path 181" d="M284.263,542.646c-6.658-13.789-.843-30.99,9.761-42.046s25.071-17.365,39.046-23.53c30.949-13.645,63.706-29.88,79.427-59.8,5.3-10.09,8.323-21.187,11.3-32.2,5.775-21.29,11.2-45.478-.411-64.24-3.35-5.4-8.364-10.275-14.611-11.3-7.131-1.274-14.385,2.651-18.824,8.384a41.574,41.574,0,0,0-7.172,20.2c-1.726,13.625-.288,27.5-1.726,41.1s-6.391,28.133-17.57,35.9c-13.707,9.556-33.25,7.419-46.546,17.509C306.19,440.84,302.1,454.9,293.716,465.5c-7.069,8.857-16.954,14.9-26,21.722s-17.8,15.125-20.879,26.037a30.825,30.825,0,0,0,42.929,36.23" transform="translate(-245.671 -309.283)" fill="#b3eaf4"/>
      </g>
      <path id="Path_182" data-name="Path 182" d="M173.214,135.563a42.847,42.847,0,0,1,1.233-69.686c6.329-4.336,13.81-7.008,19.441-12.33,4.994-4.644,8.22-11.077,13.83-14.981a20.139,20.139,0,0,1,30.579,23.3c-2.569,7.213-9.042,12.495-11.755,19.646-2.918,7.727-1.027,16.44-2.055,24.537a33.887,33.887,0,0,1-45.375,27.291" transform="translate(-155.909 -34.854)" fill="#b3eaf4"/>
      <g id="Group_22" data-name="Group 22" transform="translate(0)" opacity="0.8">
        <path id="Path_183" data-name="Path 183" d="M173.214,135.563a42.847,42.847,0,0,1,1.233-69.686c6.329-4.336,13.81-7.008,19.441-12.33,4.994-4.644,8.22-11.077,13.83-14.981a20.139,20.139,0,0,1,30.579,23.3c-2.569,7.213-9.042,12.495-11.755,19.646-2.918,7.727-1.027,16.44-2.055,24.537a33.887,33.887,0,0,1-45.375,27.291" transform="translate(-155.909 -34.854)" fill="#fff"/>
      </g>
      <path id="Path_184" data-name="Path 184" d="M83.93,27.41h25.256V79.464A11.118,11.118,0,0,1,98.069,90.581H95.048A11.118,11.118,0,0,1,83.93,79.464V27.41Z" transform="translate(-65.844 29.239)" fill="#2bc0e4"/>
      <path id="Path_185" data-name="Path 185" d="M83.93,39.3,96.548,16.14,109.186,39.3Z" transform="translate(-65.844 17.349)" fill="#ffbe9d"/>
      <path id="Path_186" data-name="Path 186" d="M168.42,60.315s3.843,5.775,10.008,0l-4.994-9.165Z" transform="translate(-142.71 -17.661)" fill="#2bc0e4"/>
      <line id="Line_3" data-name="Line 3" x2="5.425" transform="translate(21.826 56.649)" fill="#fff" opacity="0.3"/>
      <path id="Path_187" data-name="Path 187" d="M190.347,86.817a80.141,80.141,0,0,1-12.844.514,79.836,79.836,0,0,1-12.823-.514A79.841,79.841,0,0,1,177.5,86.3,80.143,80.143,0,0,1,190.347,86.817Z" transform="translate(-146.656 19.358)" fill="#263238"/>
      <path id="Path_188" data-name="Path 188" d="M189.914,84.914a76.881,76.881,0,0,1-12.577.514,76.879,76.879,0,0,1-12.577-.514,81.38,81.38,0,0,1,12.577-.493,81.379,81.379,0,0,1,12.577.493Z" transform="translate(-146.571 17.377)" fill="#263238"/>
      <path id="Path_189" data-name="Path 189" d="M168.584,62.6c.267,0,.514,10.07.514,22.5s-.247,22.605-.514,22.605-.514-10.09-.514-22.605S168.3,62.6,168.584,62.6Z" transform="translate(-143.079 -5.581)" fill="#fafafa"/>
      <path id="Path_190" data-name="Path 190" d="M173.554,62.6c.288,0,.514,10.07.514,22.5s-.226,22.605-.514,22.605-.514-10.09-.514-22.605S173.266,62.6,173.554,62.6Z" transform="translate(-137.836 -5.581)" fill="#fafafa"/>
    </g>
    <g id="Notebook" transform="translate(762.169 535.354)">
      <path id="Path_191" data-name="Path 191" d="M238.672,373.71l114.753,4.912,2.754,6.679L280.985,507.369,145.23,503.4Z" transform="translate(-117.628 -355.184)" fill="#263238"/>
      <path id="Path_192" data-name="Path 192" d="M142.72,483.855,279.3,491.664l71.35-110.7-50.1,4.069L173.771,429.685Z" transform="translate(-120.276 -347.535)" fill="#e0e0e0"/>
      <path id="Path_193" data-name="Path 193" d="M215.843,520.256,341.2,522.311c-5.2-16.05,7.069-38.634,23.941-46.238,11.179-5.035,32.2-11.57,43.053-17.139,20.55-10.583,39.251-30.6,37.628-47.8l-51.54-1.706L328.52,406.88c-5.507,16.317-17.262,26.982-35.141,33.415-15.988,5.754-34.2,5.734-49.814,12.33-25.112,10.522-37.175,44.615-27.825,67.693" transform="translate(-212.572 -392.136)" fill="#ebebeb"/>
      <path id="Path_194" data-name="Path 194" d="M215.849,520.551s-.123-.267-.308-.822l-.863-2.4a29.2,29.2,0,0,1-1.069-4.11,41.739,41.739,0,0,1-.863-5.713,58.219,58.219,0,0,1,9.042-35.84,48.4,48.4,0,0,1,3.6-5.055c.678-.8,1.336-1.685,2.055-2.466l2.322-2.363a21.68,21.68,0,0,1,2.507-2.24c.884-.719,1.747-1.48,2.692-2.158a46.114,46.114,0,0,1,6.165-3.658c8.693-4.377,19.071-6.165,29.88-8.22,5.425-.986,11.015-2.055,16.6-3.555a77.659,77.659,0,0,0,16.543-6.658,54.618,54.618,0,0,0,7.706-5.055,46.279,46.279,0,0,0,6.843-6.473,49.319,49.319,0,0,0,9.535-16.81l.123-.35h.349l54.766,2.055c19.009.74,38.676,1.254,58.815,1.932l3.658.123h.452v.452a27.989,27.989,0,0,1-1.644,11.59,44.045,44.045,0,0,1-2.3,5.343,51.655,51.655,0,0,1-3,4.932,76.3,76.3,0,0,1-15.536,16.44,92.165,92.165,0,0,1-18.762,11.57c-6.617,2.98-13.317,5.4-19.872,7.83s-13.049,4.727-19.194,7.4a38.345,38.345,0,0,0-8.446,5.138c-1.336.945-2.445,2.158-3.658,3.206a22.554,22.554,0,0,0-3.226,3.617,46.754,46.754,0,0,0-8.775,16.44,30.62,30.62,0,0,0-.308,17.55l.185.555h-.575l-91.223-1.6-25.277-.514-6.638-.185h6.638l25.3.288,91.2,1.274-.39.534a31.236,31.236,0,0,1,.267-18.043,46.958,46.958,0,0,1,8.9-16.81c.966-1.315,2.178-2.445,3.267-3.679a23.044,23.044,0,0,1,3.74-3.309,37.975,37.975,0,0,1,8.631-5.24c6.165-2.713,12.7-5.035,19.256-7.46s13.234-4.87,19.79-7.83a89.274,89.274,0,0,0,18.5-11.467,75.074,75.074,0,0,0,15.33-16.194,55.332,55.332,0,0,0,2.98-4.768,43.151,43.151,0,0,0,2.24-5.2,27.148,27.148,0,0,0,1.6-11.159l.493.452-3.678-.1c-20.139-.678-39.806-1.212-58.794-2.055l-54.787-2.055.473-.329a50.718,50.718,0,0,1-9.741,17.118,46.853,46.853,0,0,1-6.987,6.576,53.418,53.418,0,0,1-7.85,5.117,77.122,77.122,0,0,1-16.728,6.7c-5.651,1.541-11.262,2.569-16.687,3.535-10.809,1.932-21.146,3.74-29.716,8.015a44.7,44.7,0,0,0-6.021,3.576c-.945.658-1.788,1.418-2.672,2.055a21.3,21.3,0,0,0-2.487,2.219l-2.384,2.363c-.74.781-1.377,1.644-2.055,2.445a45.415,45.415,0,0,0-3.6,4.973A58.772,58.772,0,0,0,214.1,491.7a57.685,57.685,0,0,0-1.13,15.824,39.718,39.718,0,0,0,.781,5.692,29.258,29.258,0,0,0,.986,4.11c.349,1.069.6,1.87.781,2.446A3.262,3.262,0,0,0,215.849,520.551Z" transform="translate(-212.578 -392.431)" fill="#263238"/>
      <path id="Path_195" data-name="Path 195" d="M300.106,416.484a21.513,21.513,0,0,0,.288-2.24,12.639,12.639,0,0,0-.986-5.918,12.145,12.145,0,0,0-5.918-6.371,13.563,13.563,0,0,0-18.208,6.987,15.187,15.187,0,0,0-1.212,8.734,14.961,14.961,0,0,0,2.055,5.631c.781,1.233,1.356,1.808,1.295,1.87a5.919,5.919,0,0,1-1.6-1.644,13.747,13.747,0,0,1-2.528-5.734,15.432,15.432,0,0,1,1.048-9.247,14.385,14.385,0,0,1,19.482-7.439,12.659,12.659,0,0,1,6.165,6.946,12.022,12.022,0,0,1,.7,6.165,8.828,8.828,0,0,1-.411,1.665C300.229,416.32,300.147,416.484,300.106,416.484Z" transform="translate(-148.832 -399.705)" fill="#263238"/>
      <path id="Path_196" data-name="Path 196" d="M309.679,416.48c-.1,0,.164-.8.288-2.24a12.9,12.9,0,0,0-.986-5.919,12.207,12.207,0,0,0-5.939-6.371,13.583,13.583,0,0,0-18.207,6.987,15.166,15.166,0,0,0-1.192,8.734A14.632,14.632,0,0,0,285.7,423.3c.781,1.233,1.356,1.808,1.295,1.87a5.486,5.486,0,0,1-1.623-1.644,14.015,14.015,0,0,1-2.528-5.734,15.618,15.618,0,0,1,1.069-9.248,14.385,14.385,0,0,1,19.461-7.439,12.658,12.658,0,0,1,6.165,6.946,12.33,12.33,0,0,1,.719,6.165,7.291,7.291,0,0,1-.432,1.665,1.46,1.46,0,0,1-.144.6Z" transform="translate(-138.739 -399.701)" fill="#263238"/>
      <path id="Path_197" data-name="Path 197" d="M316.913,416.625a20.939,20.939,0,0,0,.164-2.261,12.8,12.8,0,0,0-1.315-5.857,12.166,12.166,0,0,0-6.288-6,13.687,13.687,0,0,0-10.563.205,13.851,13.851,0,0,0-7.213,7.768,15.269,15.269,0,0,0-.719,8.8,14.734,14.734,0,0,0,2.466,5.507c.843,1.171,1.459,1.726,1.4,1.788a5.509,5.509,0,0,1-1.706-1.541,13.892,13.892,0,0,1-2.857-5.59,15.6,15.6,0,0,1,.534-9.289,14.385,14.385,0,0,1,19.03-8.528,12.782,12.782,0,0,1,6.576,6.576,12.206,12.206,0,0,1,1.048,6.165,7.339,7.339,0,0,1-.329,1.685A1.189,1.189,0,0,1,316.913,416.625Z" transform="translate(-131.095 -398.818)" fill="#263238"/>
      <path id="Path_198" data-name="Path 198" d="M324.774,416.706v-2.261a12.577,12.577,0,0,0-1.624-5.775,12.125,12.125,0,0,0-6.6-5.672,13.563,13.563,0,0,0-17.324,8.919,15.124,15.124,0,0,0-.247,8.816,14.94,14.94,0,0,0,2.754,5.384c.9,1.11,1.541,1.624,1.48,1.706a5.755,5.755,0,0,1-1.788-1.459,14,14,0,0,1-3.144-5.425,15.6,15.6,0,0,1,0-9.309,14.385,14.385,0,0,1,18.5-9.515,12.741,12.741,0,0,1,6.9,6.165,12.126,12.126,0,0,1,1.377,6.165,8.546,8.546,0,0,1-.226,1.685C324.877,416.521,324.815,416.706,324.774,416.706Z" transform="translate(-122.906 -397.996)" fill="#263238"/>
      <path id="Path_199" data-name="Path 199" d="M332.53,416.36V414.1a12.6,12.6,0,0,0-1.788-5.734A12.186,12.186,0,0,0,324,402.879a13.543,13.543,0,0,0-17.077,9.412,15.022,15.022,0,0,0,2.9,14.118c.945,1.089,1.6,1.582,1.541,1.644a5.241,5.241,0,0,1-1.829-1.377,14.22,14.22,0,0,1-3.288-5.343,15.556,15.556,0,0,1-.226-9.309,14.611,14.611,0,0,1,6.967-8.96A14.386,14.386,0,0,1,324.29,402a12.783,12.783,0,0,1,7.09,6,12.187,12.187,0,0,1,1.541,6.165,8.055,8.055,0,0,1-.185,1.706C332.633,416.154,332.571,416.36,332.53,416.36Z" transform="translate(-114.633 -398.019)" fill="#263238"/>
      <path id="Path_200" data-name="Path 200" d="M339.152,417.485v-2.26a12.557,12.557,0,0,0-1.562-5.8,12.186,12.186,0,0,0-6.514-5.734,13.543,13.543,0,0,0-17.427,8.713,15.1,15.1,0,0,0,2.322,14.221c.9,1.13,1.521,1.644,1.48,1.726a5.608,5.608,0,0,1-1.767-1.48,13.706,13.706,0,0,1-3.083-5.466,15.515,15.515,0,0,1,.144-9.309,14.55,14.55,0,0,1,7.316-8.672,14.385,14.385,0,0,1,11.344-.616,12.6,12.6,0,0,1,6.823,6.288,12.063,12.063,0,0,1,1.315,6.165,8.222,8.222,0,0,1-.247,1.685C339.255,417.3,339.193,417.505,339.152,417.485Z" transform="translate(-107.732 -397.356)" fill="#263238"/>
    </g>
    <g id="Air_Balloon" data-name="Air Balloon" transform="translate(940.534 231.478)">
      <path id="Path_201" data-name="Path 201" d="M394.377,204.676a112.161,112.161,0,0,0-17,.781,70.672,70.672,0,0,0-61.651,70.467,125.975,125.975,0,0,0,4.377,33.6c9.885,35.059,12.926,65.946,11.8,81.009l33.086,17.776S380.3,386.3,395.1,376.8s64.035-34.935,83.537-60.931c12.556-16.81,14.981-51.376-14.981-81.5A101.662,101.662,0,0,0,394.377,204.676Z" transform="translate(-306.586 -204.625)" fill="#2bc0e4"/>
      <path id="Path_202" data-name="Path 202" d="M239.994,278.7l29.88,16.153-19.461,24.722L230.5,310.512Z" transform="translate(-230.5 -54.529)" fill="#455a64"/>
      <path id="Path_203" data-name="Path 203" d="M316.619,334.362c-.267-.1,2.692-8.98,6.617-19.81s7.316-19.564,7.583-19.461-2.692,8.96-6.617,19.81S316.886,334.444,316.619,334.362Z" transform="translate(-305.665 -109.184)" fill="#263238"/>
      <path id="Path_204" data-name="Path 204" d="M329.535,339.99c-.247-.144,4.439-8.528,10.439-18.721S351.051,303,351.318,303s-4.439,8.528-10.46,18.721S329.761,340.093,329.535,339.99Z" transform="translate(-292.031 -100.838)" fill="#263238"/>
      <g id="Group_23" data-name="Group 23" transform="translate(35.798 0.96)" opacity="0.4">
        <path id="Path_205" data-name="Path 205" d="M390.557,205.128c-1.336,0-17.776,19.317-25.051,32.346-24.475,43.834-25.585,86.475-32.367,136.207-.966,7.11-4.5,22.42-4.439,22.071,3.617,2.836,15.783,8.487,15.783,8.487s11.488-13.851,16.05-20.817c18.249-27.887,38.08-49.649,53.718-79.1s30.682-55.486,16.214-85.612C430.465,218.712,405.353,204.286,390.557,205.128Z" transform="translate(-328.7 -205.093)"/>
      </g>
      <path id="Path_206" data-name="Path 206" d="M479.17,296.209a5.5,5.5,0,0,1-.432-.945c-.267-.616-.6-1.582-1.151-2.774a49.667,49.667,0,0,0-5.775-9.72,50.553,50.553,0,0,0-12.679-11.837,48.54,48.54,0,0,0-20.817-7.706h-.247l-.123-.164a117.413,117.413,0,0,0-13.337-15.33,67.281,67.281,0,0,0-18.228-12.536,46.834,46.834,0,0,0-21.557-4.11,35.573,35.573,0,0,0-18.845,6.288l-.308.206-.267-.247a36.99,36.99,0,0,0-20.139-8.939,36.313,36.313,0,0,0-17.118,2.178,38.433,38.433,0,0,0-9.823,5.528c-1.028.822-1.808,1.48-2.3,1.932a5.17,5.17,0,0,1-.8.658,8.989,8.989,0,0,1,.7-.76c.473-.493,1.213-1.192,2.219-2.055a36.065,36.065,0,0,1,9.823-5.816,36.518,36.518,0,0,1,17.406-2.425,37.587,37.587,0,0,1,20.653,9.022h-.575a36.394,36.394,0,0,1,19.338-6.514,47.923,47.923,0,0,1,22.009,4.11,67.814,67.814,0,0,1,18.5,12.762,114.668,114.668,0,0,1,13.4,15.515l-.308-.185a48.661,48.661,0,0,1,21.126,7.973,50.736,50.736,0,0,1,12.721,12.145,46.728,46.728,0,0,1,5.59,9.946c.534,1.213.8,2.2,1.027,2.836a7.955,7.955,0,0,1,.329.966Z" transform="translate(-307.123 -180.563)" fill="#263238"/>
      <path id="Path_207" data-name="Path 207" d="M412.874,305.067a21.332,21.332,0,0,0-2.857-7.172,19.522,19.522,0,0,0-6.35-6.165,17.776,17.776,0,0,0-10.953-2.589H392.3v-.411a28.827,28.827,0,0,0-42.025-20.961l-.308.164-.247-.267a20.961,20.961,0,0,0-11.488-6.165,23.159,23.159,0,0,0-10.275.329,24.105,24.105,0,0,0-8.22,4.11,2.591,2.591,0,0,1,.432-.452c.308-.267.76-.7,1.4-1.171a20.733,20.733,0,0,1,6.165-2.98,23.223,23.223,0,0,1,10.583-.534,21.455,21.455,0,0,1,12.022,6.35l-.555-.1a29.9,29.9,0,0,1,11.8-3.411,30.291,30.291,0,0,1,13.275,2.055,29.182,29.182,0,0,1,12.68,9.905,29.532,29.532,0,0,1,5.507,13.214l-.473-.37a18.5,18.5,0,0,1,11.405,2.857,20.016,20.016,0,0,1,6.412,6.432,17.221,17.221,0,0,1,2.178,5.425,13.672,13.672,0,0,1,.226,1.521,2.4,2.4,0,0,1,.082.391Z" transform="translate(-302.354 -145.753)" fill="#263238"/>
      <path id="Path_208" data-name="Path 208" d="M341.695,332.281a2.967,2.967,0,0,0-1.089-.74,5.4,5.4,0,0,0-3.494.123,10.56,10.56,0,0,1-2.651.473,4.11,4.11,0,0,1-2.959-1.295c-1.582-1.665-2.178-4.11-3.679-5.692a3.452,3.452,0,0,0-2.754-1.171,17.2,17.2,0,0,0-3.124.637,7.006,7.006,0,0,1-3.124.164A5.981,5.981,0,0,1,314.4,320.2a2.385,2.385,0,0,1,0-1.4,3.755,3.755,0,0,0,.349,1.315,6.042,6.042,0,0,0,2.055,2.857,4.726,4.726,0,0,0,2.158.966,6.165,6.165,0,0,0,2.733-.247,16.438,16.438,0,0,1,3.309-.7,4.4,4.4,0,0,1,3.535,1.459c1.747,2.055,2.281,4.316,3.617,5.734a3.35,3.35,0,0,0,2.3,1.11,9.494,9.494,0,0,0,2.446-.349,5.385,5.385,0,0,1,3.843.247C341.612,331.685,341.736,332.281,341.695,332.281Z" transform="translate(-308.095 -84.169)" fill="#263238"/>
      <path id="Path_209" data-name="Path 209" d="M344.028,330.849a126.3,126.3,0,0,1-14.57-7.193,133.391,133.391,0,0,1-14.118-8.1,131.712,131.712,0,0,1,14.591,7.193A134.257,134.257,0,0,1,344.028,330.849Z" transform="translate(-306.997 -87.587)" fill="#263238"/>
      <path id="Path_210" data-name="Path 210" d="M339.891,332.577s-.411.206-1.13.534c-.37.164-.781.411-1.356.658a5.056,5.056,0,0,1-2.055.267,8.548,8.548,0,0,1-4.932-1.911,6.759,6.759,0,0,1-1.87-2.569,9.351,9.351,0,0,0-1.459-2.692,6.925,6.925,0,0,0-5.4-1.562,12.452,12.452,0,0,1-5.2-.493,4.85,4.85,0,0,1-2.63-2.4c-.329-.8-.206-1.315-.164-1.295a7.118,7.118,0,0,0,.534,1.11,4.686,4.686,0,0,0,2.528,1.911,12.33,12.33,0,0,0,4.891.226,7.686,7.686,0,0,1,6.165,1.808,10.275,10.275,0,0,1,1.6,2.98,6.166,6.166,0,0,0,1.582,2.281,8.344,8.344,0,0,0,4.377,1.891,6.165,6.165,0,0,0,3.206-.575C339.418,332.516,339.891,332.516,339.891,332.577Z" transform="translate(-308.798 -81.732)" fill="#263238"/>
    </g>
    <g id="Character" transform="translate(-205.51 127.587)">
      <path id="Path_211" data-name="Path 211" d="M220.965,255.171l51.684-7.665-24.66-34.935-13.234.781a23.612,23.612,0,0,0-20.324,14.221h0a23.694,23.694,0,0,0-1.5,13.851Z" transform="translate(480.517 24.898)" fill="#1a7389"/>
      <path id="Path_212" data-name="Path 212" d="M220.965,255.171l51.684-7.665-24.66-34.935-13.234.781a23.612,23.612,0,0,0-20.324,14.221h0a23.694,23.694,0,0,0-1.5,13.851Z" transform="translate(480.517 24.898)" opacity="0.4"/>
      <path id="Path_213" data-name="Path 213" d="M352.261,332.775c.534,1.48,1.11,3.226,1.706,5.323a16.853,16.853,0,0,1,.555,5.549,25.728,25.728,0,0,1-1.171,6.823c-.843,2.055,1.13,3.946,2.795,2.959s4.11-6.329,4.11-13.193,6.864,1.356,9.474,4.316,11.118,11.734,12.659,11.652c2.261-.123,2.548-2.569-.123-5.466s-10.09-12.125-8.467-13.44,14.693,13.954,14.693,13.954,2.261,3.72,4.11,2.281c3.494-2.61-11.611-17.8-13.091-19.194-1.007-.986.7-2.466,1.747-1.356s12.7,15.515,16.276,12.885c2.733-2.055-12.33-12.6-13.07-16.913s10.6,9.186,13.132,7.172c.966-.76,1.562-1.459-6.165-8.22-3.7-3.329-17.8-13.193-17.8-13.193L331.217,193.28,298.46,212.042Z" transform="translate(571.206 4.547)" fill="#ffbe9d"/>
      <path id="Path_214" data-name="Path 214" d="M256.461,189.179l-47.389-56.554h0a33,33,0,0,0-2.322-5.651,17.776,17.776,0,0,0-11.179-9.33c-3-.658-6.453-.329-8.816-2.3-1.048-.884-1.747-2.055-2.856-2.959s-2.939-.986-3.658.185a3.226,3.226,0,0,0,.205,2.836,26.366,26.366,0,0,0,8.22,10.6c-4.439,1.356-10.789,3.411-10.789,3.411s-10.008-10.871-15.146-10.851,4.11,9.72,4.11,9.72-8.22-7.6-10.768-5.466,3.987,7.789,3.987,7.789a10.892,10.892,0,0,0-6.679-1.87c-2.322.39-4.316,3.124-3.062,5.117a5.343,5.343,0,0,0,2.055,1.665l12.618,7.028a15.268,15.268,0,0,0,6.74,2.466c6.412.206,11.282-3.761,17.673-3.6,0,0,35.737,75.234,39.354,79.118s82.2,9.165,82.2,9.165L356.4,190.555Z" transform="translate(414.505 -81.526)" fill="#ffbe9d"/>
      <path id="Path_215" data-name="Path 215" d="M277.644,348.83l48.4,21.064L300.146,430.25c-5.631-2.815-3.781-39.045-3.781-39.045L264.8,378.977Z" transform="translate(535.694 168.656)" fill="#2bc0e4"/>
      <g id="Group_24" data-name="Group 24" transform="translate(836.923 539.147)" opacity="0.6">
        <path id="Path_216" data-name="Path 216" d="M283.026,360.335a2.692,2.692,0,0,1,3.555-.514,2.589,2.589,0,0,1,.514,3.514,2.815,2.815,0,0,1-3.74.514,2.672,2.672,0,0,1-.144-3.72" transform="translate(-282.527 -359.371)" fill="#fff"/>
      </g>
      <path id="Path_217" data-name="Path 217" d="M308.948,360.072l-4.973-1.932L281,416.729s0,3.206,2.055,3.7Z" transform="translate(552.785 178.478)" fill="#fff" opacity="0.6"/>
      <path id="Path_218" data-name="Path 218" d="M279.832,372.044c.308.1,1.069-1.315,2.651-2.343s3.124-1.295,3.124-1.6-1.891-.616-3.761.678S279.544,371.983,279.832,372.044Z" transform="translate(551.467 188.7)" fill="#263238"/>
      <path id="Path_219" data-name="Path 219" d="M279.764,374.841c.267.206,1.315-.863,3-1.336s3.1-.185,3.226-.473-1.48-1.212-3.555-.6S279.5,374.718,279.764,374.841Z" transform="translate(551.432 193.342)" fill="#263238"/>
      <path id="Path_220" data-name="Path 220" d="M285.791,377.474c.185-.247-1.13-1.295-3.062-1.233s-3.165,1.171-2.98,1.4,1.418-.247,3.021-.267S285.627,377.8,285.791,377.474Z" transform="translate(551.446 197.573)" fill="#263238"/>
      <path id="Path_221" data-name="Path 221" d="M276.593,371.289c.329,0,.493-1.541,1.336-3.144s1.911-2.692,1.726-2.959-1.788.534-2.733,2.445S276.305,371.33,276.593,371.289Z" transform="translate(547.821 185.859)" fill="#263238"/>
      <path id="Path_222" data-name="Path 222" d="M274.316,371.417a6.43,6.43,0,0,0,1.274-3.021,14.1,14.1,0,0,0,.391-3.576,15.666,15.666,0,0,0-.164-2.055,3.986,3.986,0,0,0-.329-1.213,1.377,1.377,0,0,0-1.5-.8,1.706,1.706,0,0,0-1.233.987,4.483,4.483,0,0,0-.329,1.212,11.529,11.529,0,0,0,.473,5.734c.678,1.952,1.582,2.9,1.685,2.815s-.473-1.171-.945-3.041a13.645,13.645,0,0,1-.349-3.35,13.4,13.4,0,0,1,.206-2.055c.1-.7.329-1.254.7-1.295s.164,0,.308.206a4.113,4.113,0,0,1,.226.9,16.914,16.914,0,0,1,.226,2.055,17.553,17.553,0,0,1-.144,3.391,23.172,23.172,0,0,0-.493,3.1Z" transform="translate(543.563 181.21)" fill="#263238"/>
      <path id="Path_223" data-name="Path 223" d="M278.975,367.441a6.469,6.469,0,0,0-2.569-2.055,10.48,10.48,0,0,0-3.494-1.007,9.408,9.408,0,0,0-2.055,0,2.774,2.774,0,0,0-2.363,1.274,1.562,1.562,0,0,0,.308,1.624,4.682,4.682,0,0,0,.986.781,7.375,7.375,0,0,0,2.055.884,7.6,7.6,0,0,0,3.658,0c2.055-.514,2.959-1.582,2.877-1.644a27.75,27.75,0,0,1-3.021.863,7.521,7.521,0,0,1-3.247-.247,6.965,6.965,0,0,1-1.726-.822c-.6-.37-1.007-.822-.843-1.027a1.829,1.829,0,0,1,1.438-.637,10.62,10.62,0,0,1,2.055,0,11.855,11.855,0,0,1,3.267.7C277.865,366.783,278.872,367.585,278.975,367.441Z" transform="translate(539.48 185.001)" fill="#263238"/>
      <path id="Path_224" data-name="Path 224" d="M252.91,394.572l20.016,41.943,6.268,37.853a4.747,4.747,0,0,0,5.8,3.843h0a4.706,4.706,0,0,0,3.309-2.836c3.678-9.1,17.057-42.7,15.413-45.683-1.891-3.452-18.187-45.642-18.187-45.642Z" transform="translate(523.15 205.814)" fill="#2bc0e4"/>
      <path id="Path_225" data-name="Path 225" d="M268.52,456.2l17.427-51.376.822,1.788a7.172,7.172,0,0,1,.349,4.932c-1.274,4.377-5.035,16.44-15.166,41.758a4.727,4.727,0,0,1-3.432,2.9Z" transform="translate(539.619 227.727)" fill="#fff" opacity="0.6"/>
      <g id="Group_25" data-name="Group 25" transform="translate(810.352 621.492)" opacity="0.6">
        <path id="Path_226" data-name="Path 226" d="M269.973,400.734a2.856,2.856,0,0,0,.822,3.74,2.774,2.774,0,0,0,3.74-.781,3.062,3.062,0,0,0-.9-3.966,2.856,2.856,0,0,0-3.781,1.254" transform="translate(-269.597 -399.44)" fill="#fff"/>
      </g>
      <path id="Path_227" data-name="Path 227" d="M274.571,420.054a10.275,10.275,0,0,0-10.5-.37,3.318,3.318,0,0,1,1.233-1.233,7.357,7.357,0,0,1,4.11-1.048,7.46,7.46,0,0,1,4.007,1.315C274.325,419.376,274.653,419.972,274.571,420.054Z" transform="translate(534.924 240.995)" fill="#263238"/>
      <path id="Path_228" data-name="Path 228" d="M273.6,422.777a35.46,35.46,0,0,0-4.562-.123,39.364,39.364,0,0,0-4.377,1.315c-.226-.164,1.418-2.055,4.233-2.343A5.261,5.261,0,0,1,273.6,422.777Z" transform="translate(535.525 245.301)" fill="#263238"/>
      <path id="Path_229" data-name="Path 229" d="M277.494,414.8a46.321,46.321,0,0,0-7.028-.678,43.676,43.676,0,0,0-6.946,1.356,12.967,12.967,0,0,1,13.974-.678Z" transform="translate(534.343 236.443)" fill="#263238"/>
      <path id="Path_230" data-name="Path 230" d="M273.662,407.608c0,.308-2.774.37-5.877,1.644s-5.179,3.062-5.384,2.836a9.247,9.247,0,0,1,5.014-3.8,9.145,9.145,0,0,1,6.247-.678Z" transform="translate(533.162 230.385)" fill="#263238"/>
      <path id="Path_231" data-name="Path 231" d="M270.9,401.622a23.655,23.655,0,0,0-6.165,1.562,22.765,22.765,0,0,0-4.973,3.925c-.1,0,.1-.8.843-1.788a10.029,10.029,0,0,1,3.7-3.062,10.13,10.13,0,0,1,4.665-1.069C270.2,401.232,270.921,401.519,270.9,401.622Z" transform="translate(530.353 223.896)" fill="#263238"/>
      <path id="Path_232" data-name="Path 232" d="M266.448,406.279a4.786,4.786,0,0,1-.781-1.582,12.433,12.433,0,0,1-.6-4.768,5.4,5.4,0,0,1,1.048-3.309,1.911,1.911,0,0,1,2.055-.514,3.206,3.206,0,0,1,1.541,1.623,6.741,6.741,0,0,1-2.836,8.1,7.83,7.83,0,0,1-8.672-.575,2.692,2.692,0,0,1-1.028-2.055,1.87,1.87,0,0,1,1.377-1.706,6.761,6.761,0,0,1,3.452.206,13.276,13.276,0,0,1,4.377,2.055c.925.637,1.336,1.11,1.295,1.171a20.553,20.553,0,0,0-5.836-2.466,6.022,6.022,0,0,0-3.021-.1,1.007,1.007,0,0,0-.76.925,1.931,1.931,0,0,0,.76,1.274,6.966,6.966,0,0,0,7.521.432,5.836,5.836,0,0,0,2.589-6.926,2.157,2.157,0,0,0-1.027-1.171,1.007,1.007,0,0,0-1.171.247,4.769,4.769,0,0,0-.945,2.795A18.23,18.23,0,0,0,266.448,406.279Z" transform="translate(527.655 218.417)" fill="#263238"/>
      <path id="Path_233" data-name="Path 233" d="M385.525,483.114l-54.89-36.99L348.8,267.768l-51.992-30.353L249.276,226.4s-19.852,41.306-28.77,67.816c-18.762,56.246-31.956,76.406-28.935,117.136.945,12.906,48.581,45.211,78.666,63.11a97.759,97.759,0,0,0,1.6,10.666c10.275,46.485,41.676,108.3,41.676,108.3l47.677-22.174-15.372-52.711,16.009,9.35ZM267.546,368.032l6.412-28.585c-1.356,18.187-2.589,37.155-3.473,55.342a56.8,56.8,0,0,1-2.939-26.695Z" transform="translate(457.981 39.489)" fill="#263238"/>
      <path id="Path_234" data-name="Path 234" d="M274.5,567.147a4.54,4.54,0,0,1-.37-.76l-1.007-2.24-3.678-8.693c-3.165-7.583-7.706-18.5-13.152-32.161s-11.9-29.859-18.5-48.149c-1.623-4.583-3.206-9.289-4.706-14.159-.658-2.466-1.5-4.891-1.932-7.5-.123-.637-.267-1.295-.37-1.932l-.226-1.952-.432-3.9q-.863-7.891-1.377-16.07c-.164-2.713-.308-5.466-.432-8.22a71.315,71.315,0,0,1,0-8.384c.822-22.4,2.692-43.649,4.254-62.987s3.062-36.723,4.295-51.376,2.055-26.448,2.466-34.648c.267-4.11.411-7.275.493-9.412a11.788,11.788,0,0,1,.144-2.466,3.1,3.1,0,0,1,0-.822,4.884,4.884,0,0,1,0,.822V254.6c0,2.158-.1,5.343-.288,9.433-.349,8.22-1.069,20.057-2.158,34.689s-2.548,32.038-4.11,51.376-3.35,40.587-4.11,62.925c-.164,2.795,0,5.549,0,8.323s.247,5.487.432,8.22q.493,8.22,1.336,16.009l.432,3.925.226,1.932c.1.637.247,1.253.37,1.891.411,2.507,1.233,4.953,1.891,7.4,1.459,4.829,3.041,9.535,4.644,14.118,6.453,18.269,12.844,34.524,18.187,48.19s9.8,24.66,12.864,32.264c1.5,3.781,2.692,6.72,3.514,8.775.37.966.678,1.726.884,2.281A2.945,2.945,0,0,0,274.5,567.147Z" transform="translate(497.079 65.77)" fill="#455a64"/>
      <path id="Path_235" data-name="Path 235" d="M235.9,268.458a8.438,8.438,0,0,1-1.233-1.007,12.967,12.967,0,0,1-2.322-3.74,39.949,39.949,0,0,1-2.343-14.139,119.681,119.681,0,0,1,.678-14.385,32.67,32.67,0,0,1,.822-5.857,34.746,34.746,0,0,1,0,5.918c-.185,3.637-.473,8.672-.391,14.221a45.97,45.97,0,0,0,2.055,13.913,15.886,15.886,0,0,0,1.952,3.72A7.926,7.926,0,0,1,235.9,268.458Z" transform="translate(498.974 42.58)" fill="#455a64"/>
      <path id="Path_236" data-name="Path 236" d="M231.879,227.72a12.042,12.042,0,0,1,.411,4.973,23.016,23.016,0,0,1-13.132,19.276,12.146,12.146,0,0,1-4.788,1.439c0-.164,1.788-.658,4.459-2.055a24.332,24.332,0,0,0,12.741-18.68C231.92,229.631,231.694,227.72,231.879,227.72Z" transform="translate(482.489 40.882)" fill="#455a64"/>
      <path id="Path_237" data-name="Path 237" d="M271,278.18v.534a8.2,8.2,0,0,1-.123,1.582q-.247,2.219-.616,6.165c-.6,5.364-1.418,12.988-2.445,22.359-2.055,18.968-5.1,45.005-8.343,73.8a134.337,134.337,0,0,0,2.692,40.484,139.754,139.754,0,0,0,4.953,17.057c1.849,5.261,3.555,10.172,5.137,14.673,3.1,8.919,5.61,16.173,7.378,21.27.822,2.466,1.48,4.4,2.055,5.8l.493,1.521a1.643,1.643,0,0,1,.123.514,1.128,1.128,0,0,0-.226-.493,8.578,8.578,0,0,1-.575-1.48c-.534-1.377-1.233-3.288-2.055-5.734l-7.686-21.146c-1.6-4.48-3.37-9.391-5.261-14.632a138.835,138.835,0,0,1-5.076-17.159,133.45,133.45,0,0,1-2.815-40.772c3.206-28.873,6.412-54.89,8.652-73.775,1.171-9.371,2.055-17,2.774-22.338.329-2.589.6-4.6.8-6.165a8.815,8.815,0,0,1,.226-1.562,1.743,1.743,0,0,1-.062-.493Z" transform="translate(528.653 94.118)" fill="#455a64"/>
      <path id="Path_238" data-name="Path 238" d="M138.65,202.276l8.426-21.5,19.194,28.647-25.606-6.412" transform="translate(568.607 63.305)" fill="#ffbe9d"/>
      <path id="Path_239" data-name="Path 239" d="M429.153,246.5,406.363,195.4c-2.733-8.22-7.85-9.494-12.125-14.262l-57.109-32.2c-41.635-17.057-64.3,40.114-64.3,40.114l-37.833,86.311c-44.491,14.734-12.988,48.91-12.988,48.91s-12.1-21.043-.185-28.626c12.453-7.953,26.263,12.988,39.539,32.88,15.68,23.468,66.6,38.717,66.6,38.717,5.96-6.288,4.295-28.257,8.96-40.032,1.48-3.74,36.744-85.427,36.744-85.427l13.666,33.106s17.509-20.55,26.017-23.8a96.852,96.852,0,0,1,15.8-4.583Z" transform="translate(479.127 -45.595)" fill="#2bc0e4"/>
      <path id="Path_240" data-name="Path 240" d="M292.9,216.3a8.531,8.531,0,0,1-1.726,1.212,33.393,33.393,0,0,1-5.2,2.445,37.175,37.175,0,0,1-36.086-5.569,31.993,31.993,0,0,1-4.213-3.9,6.7,6.7,0,0,1-1.274-1.665c.144-.144,2.055,2.178,5.918,4.994a38.614,38.614,0,0,0,35.408,5.466C290.289,217.763,292.9,216.139,292.9,216.3Z" transform="translate(514.171 20.939)" fill="#263238"/>
      <path id="Path_241" data-name="Path 241" d="M222.3,202.477h0l35.244,3.329,56.39-59.6-33.168-1.151L221.72,150.9a153.182,153.182,0,0,1,.575,51.581Z" transform="translate(490.243 -46.327)" fill="#2bc0e4"/>
      <path id="Path_242" data-name="Path 242" d="M270.036,157.74a3.722,3.722,0,0,1-.432,1.089l-1.418,3.041c-1.274,2.754-3.062,6.556-5.22,11.159-4.377,9.453-10.275,22.605-16.44,37.2s-12.042,27.8-16.44,37.278c-2.158,4.747-3.946,8.549-5.24,11.179l-1.48,3a5.013,5.013,0,0,1-.6,1.027,6.806,6.806,0,0,1,.411-1.11l1.315-3.083,4.932-11.3c4.11-9.679,9.844-22.852,16.091-37.4s12.33-27.7,16.79-37.093c2.281-4.685,4.11-8.446,5.528-11.035l1.582-2.959a5.44,5.44,0,0,1,.617-.986Z" transform="translate(491.351 -32.949)" fill="#263238"/>
      <path id="Path_243" data-name="Path 243" d="M307.742,166.17c.1.185-2.055,1.315-5.076,3.863a36.458,36.458,0,0,0-4.747,4.911,40.239,40.239,0,0,0-4.48,7.09,41.9,41.9,0,0,0-2.795,7.891,36.1,36.1,0,0,0-.9,6.8c-.144,3.9.308,6.329.1,6.35a5.96,5.96,0,0,1-.411-1.665,12.125,12.125,0,0,1-.288-2.055,21.382,21.382,0,0,1-.144-2.713,32.222,32.222,0,0,1,.719-6.987,39.043,39.043,0,0,1,2.774-8.22,39.472,39.472,0,0,1,4.665-7.234,33.248,33.248,0,0,1,5.035-4.87,19.381,19.381,0,0,1,2.2-1.562,12.579,12.579,0,0,1,1.747-1.048A5.385,5.385,0,0,1,307.742,166.17Z" transform="translate(561.225 -24.055)" fill="#263238"/>
      <path id="Path_244" data-name="Path 244" d="M341.529,154.815,308.464,216.63a21.824,21.824,0,0,1-28.133,9.617h0a21.8,21.8,0,0,1-10.275-30.086l5.692-10.727s-14.385-9.309-7.645-24.845c6-13.851,28.031-52.979,32.7-61.24l27.866,12.474a31.3,31.3,0,0,1,12.864,42.991Z" transform="translate(537.282 -94.552)" fill="#ffbe9d"/>
      <path id="Path_245" data-name="Path 245" d="M271.839,141.13a39.436,39.436,0,0,0,22.708,3.288s-9.741,8.98-24.537.7Z" transform="translate(541.19 -50.473)" fill="#eb996e"/>
      <path id="Path_246" data-name="Path 246" d="M276.187,117.72a2.4,2.4,0,0,0,1.13,3.185,2.322,2.322,0,0,0,3.165-.966,2.425,2.425,0,0,0-1.13-3.185,2.322,2.322,0,0,0-3.165.966Z" transform="translate(547.467 -76.486)" fill="#263238"/>
      <path id="Path_247" data-name="Path 247" d="M276.135,116.631c.144.411,2.363,0,4.747.986s3.576,3.021,3.966,2.856.123-.719-.37-1.6a6.741,6.741,0,0,0-3.021-2.651,6.453,6.453,0,0,0-3.946-.432C276.546,116.015,276.052,116.364,276.135,116.631Z" transform="translate(547.643 -77.349)" fill="#263238"/>
      <path id="Path_248" data-name="Path 248" d="M287,123.044a2.4,2.4,0,0,0,1.13,3.185,2.322,2.322,0,0,0,3.165-.986,2.425,2.425,0,0,0-1.13-3.165,2.3,2.3,0,0,0-3.165.966Z" transform="translate(558.872 -70.877)" fill="#263238"/>
      <path id="Path_249" data-name="Path 249" d="M287.395,121.914c.144.411,2.363,0,4.747.986s3.576,3.041,3.966,2.877.144-.719-.39-1.623a6.555,6.555,0,0,0-3-2.63,6.309,6.309,0,0,0-3.946-.432C287.806,121.318,287.312,121.729,287.395,121.914Z" transform="translate(559.522 -71.761)" fill="#263238"/>
      <path id="Path_250" data-name="Path 250" d="M282.188,138.017a17.879,17.879,0,0,0-3.535-2.4c-.575-.349-1.11-.719-1.027-1.171a4.025,4.025,0,0,1,1.212-1.623L282.7,129a87.851,87.851,0,0,0,9.433-10.275,85.533,85.533,0,0,0-10.275,9.474l-3.8,3.884a3.843,3.843,0,0,0-1.377,2.24,1.747,1.747,0,0,0,.6,1.336,4.747,4.747,0,0,0,.966.6A15.742,15.742,0,0,0,282.188,138.017Z" transform="translate(548.227 -74.116)" fill="#263238"/>
      <path id="Path_251" data-name="Path 251" d="M287.745,130.435c-.37-.185-1.521,2.384-4.542,3.226s-5.651-.658-5.836-.308.39.76,1.541,1.315a6.966,6.966,0,0,0,4.788.411,6.042,6.042,0,0,0,3.658-2.774C287.93,131.277,287.93,130.517,287.745,130.435Z" transform="translate(548.917 -61.766)" fill="#263238"/>
      <path id="Path_252" data-name="Path 252" d="M289.12,117.077c0,.76,2.445,1.5,5.076,3.083s4.562,3.35,5.179,2.939c.288-.205.164-.986-.452-2.055a10.44,10.44,0,0,0-7.83-4.583C289.9,116.46,289.141,116.727,289.12,117.077Z" transform="translate(561.352 -76.5)" fill="#263238"/>
      <path id="Path_253" data-name="Path 253" d="M278.057,113.6c.185.74,2.055.9,4.11,1.747s3.473,2.055,4.11,1.6c.288-.205.267-.863-.247-1.685a5.9,5.9,0,0,0-2.857-2.343,6.021,6.021,0,0,0-3.7-.349C278.468,112.739,277.954,113.191,278.057,113.6Z" transform="translate(549.666 -80.752)" fill="#263238"/>
      <path id="Path_254" data-name="Path 254" d="M301.659,130.85c.329,0,12.022,1.6,6.967,12.022s-14.385,3.185-14.385,2.877S301.659,130.85,301.659,130.85Z" transform="translate(566.754 -61.318)" fill="#ffbe9d"/>
      <path id="Path_255" data-name="Path 255" d="M296.759,140.742s.123.206.349.514a2.055,2.055,0,0,0,1.356.678,5.015,5.015,0,0,0,4.11-3.021,6.74,6.74,0,0,0,.76-2.836,2.343,2.343,0,0,0-.7-2.055,1.027,1.027,0,0,0-1.315,0c-.267.226-.308.452-.37.452s-.144-.288.144-.678a1.315,1.315,0,0,1,.74-.452,1.541,1.541,0,0,1,1.13.226,2.856,2.856,0,0,1,1.11,2.528,6.884,6.884,0,0,1-.781,3.206,5.2,5.2,0,0,1-4.829,3.206,2.24,2.24,0,0,1-1.541-1.069C296.656,141.009,296.718,140.742,296.759,140.742Z" transform="translate(569.372 -58.716)" fill="#eb996e"/>
      <path id="Path_256" data-name="Path 256" d="M317.723,162.92a6.165,6.165,0,0,0-6.165.349c-1.356,1.192-2.281,2.836-3.637,4.11a4.11,4.11,0,0,1-4.973.781,3.555,3.555,0,0,1-1.11-3.391,9.823,9.823,0,0,1,1.5-3.432c2.815-4.644,6.042-9.083,8.467-13.954a27.722,27.722,0,0,0,3.309-15.762,15.207,15.207,0,0,0-9.248-12.474c-3.391-1.192-7.172-.843-10.645-1.829a14.2,14.2,0,0,1-9.124-8.385,24.668,24.668,0,0,0-1.356-2.343c.123-.247,1.356-2.343,2.569-2.754,9.165-3.1,21.557.452,29.14,6.432a33.682,33.682,0,0,1,12.988,25.236c.1,9.659-5.98,20.3-11.631,27.5" transform="translate(556.731 -91.025)" fill="#263238"/>
      <path id="Path_257" data-name="Path 257" d="M322.693,167.78c2.9-4.932,7.583-8.487,11.159-12.926s6.165-10.707,3.494-15.8c-.863-1.747-2.261-3.206-2.98-5.014a24.844,24.844,0,0,1-1.028-5.775,20.057,20.057,0,0,0-9.946-14.385c-3.658-2.055-7.871-2.877-11.59-4.829-5.857-3.083-10.152-8.8-16.44-11.241a7.809,7.809,0,0,0-6.391-.206,3.864,3.864,0,0,0-1.582,5.528,3.35,3.35,0,0,0-4.624-2.219,5.055,5.055,0,0,0-2.61,4.953,11,11,0,0,0,2.24,5.425A27.825,27.825,0,0,0,298.217,122.2l14.2-1.11,11.631,8.611,8.59,13.707-15.6,20.263Z" transform="translate(551.864 -97.015)" fill="#263238"/>
      <path id="Path_258" data-name="Path 258" d="M-124.73,114.21" transform="translate(124.73 -78.874)" fill="#2bc0e4"/>
    </g>
    <g id="Light_Bulb" data-name="Light Bulb" transform="translate(580.341 -140.153)">
      <path id="Path_259" data-name="Path 259" d="M309.043,116.168A50.1,50.1,0,1,0,240.672,166c.391,5.918.822,12.618.822,12.618l43.813-2.836s-.185-7.09-.514-13.419a50.06,50.06,0,0,0,24.249-46.2Z" transform="translate(-208.937 -69.288)" fill="#2bc0e4"/>
      <path id="Path_260" data-name="Path 260" d="M256.894,150.539v-2.445c0-1.582.226-3.946.473-6.967s.6-6.74,1.274-10.994a75.85,75.85,0,0,1,3.637-14.221,48.578,48.578,0,0,1,3.637-7.747,9.309,9.309,0,0,1,3.226-3.288,5.158,5.158,0,0,1,4.747-.144,3.391,3.391,0,0,1,1.706,1.87,3.431,3.431,0,0,1,0,2.589,7.172,7.172,0,0,1-3.637,3.576,13.769,13.769,0,0,1-17.9-7.953,10.522,10.522,0,0,1-.678-5.754,4.5,4.5,0,0,1,4.336-3.761,3.165,3.165,0,0,1,2.651,1.6,4.5,4.5,0,0,1,.6,3.041,9.823,9.823,0,0,1-3.185,5.2,14.878,14.878,0,0,1-11.447,4.11,13.029,13.029,0,0,1-10.131-6.576,7.583,7.583,0,0,1-.719-6.042,3.658,3.658,0,0,1,5.138-2.261,5.1,5.1,0,0,1,2.261,2.055,7.974,7.974,0,0,1,.945,2.836,14.24,14.24,0,0,1-.39,5.754,14.878,14.878,0,0,1-6.514,8.837,15.166,15.166,0,0,1-10.275,2.055A7.994,7.994,0,0,1,222,113.857a3.863,3.863,0,0,1-.6-4.788,3.308,3.308,0,0,1,2.178-1.254,4.871,4.871,0,0,1,2.425.308,7.151,7.151,0,0,1,3.267,3.247c1.439,2.63,2.61,5.2,3.8,7.645,4.644,9.823,8.015,17.94,10.275,23.571,1.13,2.815,2.055,5.014,2.548,6.494.267.74.473,1.315.637,1.706a4.5,4.5,0,0,1,.185.6l-.247-.575-.7-1.665-2.651-6.473c-2.343-5.59-5.775-13.686-10.46-23.468-1.192-2.425-2.4-5.035-3.822-7.6a6.617,6.617,0,0,0-3.041-3,3,3,0,0,0-3.432,4.912,7.439,7.439,0,0,0,4.336,1.911,14.611,14.611,0,0,0,9.885-2.055,14.385,14.385,0,0,0,6.165-8.508,13.563,13.563,0,0,0,.37-5.528,5.4,5.4,0,0,0-2.856-4.418,3.124,3.124,0,0,0-2.61,0,3.185,3.185,0,0,0-1.706,2.055,6.966,6.966,0,0,0,.678,5.549,12.474,12.474,0,0,0,9.659,6.165,14.241,14.241,0,0,0,10.953-3.966,9.268,9.268,0,0,0,2.98-4.85,3.966,3.966,0,0,0-.514-2.651,2.63,2.63,0,0,0-2.158-1.315,3.637,3.637,0,0,0-2.446.966,4.11,4.11,0,0,0-1.274,2.322,9.843,9.843,0,0,0,.637,5.425,13.214,13.214,0,0,0,17.262,7.665,6.658,6.658,0,0,0,3.37-3.288,2.959,2.959,0,0,0-1.4-3.8,4.665,4.665,0,0,0-4.3.123,8.918,8.918,0,0,0-3.021,3.083,48.565,48.565,0,0,0-3.617,7.645,74.925,74.925,0,0,0-3.7,14.1c-.719,4.254-1.11,7.953-1.4,10.974s-.432,5.343-.575,6.967l-.144,1.808A4.934,4.934,0,0,1,256.894,150.539Z" transform="translate(-196.388 -43.221)" fill="#263238"/>
      <path id="Path_261" data-name="Path 261" d="M265.571,128.054,227.964,130.5a2.856,2.856,0,0,1-3.021-2.651h0a2.836,2.836,0,0,1,2.651-3l37.628-2.425a2.815,2.815,0,0,1,3,2.63h0A2.836,2.836,0,0,1,265.571,128.054Z" transform="translate(-192.057 -13.235)" fill="#263238"/>
      <path id="Path_262" data-name="Path 262" d="M265.461,126.36l-37.628,2.445a2.821,2.821,0,0,0,.37,5.631l4.11-.267,6.165,10.09a3.678,3.678,0,0,0,3.35,1.726l13.44-.863a3.72,3.72,0,0,0,3.1-2.178l4.644-10.748,2.815-.185a2.836,2.836,0,0,0-.37-5.651Z" transform="translate(-191.783 -9.075)" fill="#263238"/>
      <g id="Group_26" data-name="Group 26" transform="translate(5.609 10.1)" opacity="0.2">
        <path id="Path_263" data-name="Path 263" d="M221.99,84.432a36.415,36.415,0,0,1,9.6-7.3,27.062,27.062,0,0,1,7.48-2.754c1.891-.308,2.98-.205,3.1.185.267.9-3.432,2.487-8.22,6.165a41.224,41.224,0,0,0-16.132,41.594c1.089,6.062,2.754,9.72,2.055,10.275-.37.226-1.233-.432-2.4-1.932a26,26,0,0,1-3.74-7.131,36.662,36.662,0,0,1-2.055-11.837,39.044,39.044,0,0,1,2.569-14.693" transform="translate(-211.667 -74.202)" fill="#fff"/>
      </g>
      <g id="Group_27" data-name="Group 27" transform="translate(41.83 5.701)" opacity="0.2">
        <path id="Path_264" data-name="Path 264" d="M235.781,78.223c-3.165.164-6.021-.514-6.453-2.178-.185-.822.349-1.747,1.439-2.507a10.152,10.152,0,0,1,9.453-.575c1.192.637,1.809,1.5,1.726,2.343" transform="translate(-229.293 -72.062)" fill="#fff"/>
      </g>
      <path id="Path_265" data-name="Path 265" d="M250.094,135.757a23.975,23.975,0,0,1-2.651-.617,21.125,21.125,0,0,0-6.432-.411,22.2,22.2,0,0,0-6.165,1.582c-1.521.658-2.425,1.192-2.466,1.11a7.626,7.626,0,0,1,2.281-1.5,18.5,18.5,0,0,1,6.371-1.788,18.167,18.167,0,0,1,6.6.575A7.954,7.954,0,0,1,250.094,135.757Z" transform="translate(-184.205 -0.963)" fill="#455a64"/>
      <path id="Path_266" data-name="Path 266" d="M259.254,129.283c0,.164-6.782.74-15.187,1.295s-15.187.843-15.207.658,6.782-.74,15.166-1.274S259.233,129.118,259.254,129.283Z" transform="translate(-187.918 -6.038)" fill="#455a64"/>
      <path id="Path_267" data-name="Path 267" d="M255.648,131.517a22.606,22.606,0,0,1-3.678.6c-2.281.308-5.446.637-8.96.925s-6.679.432-8.98.493a20.55,20.55,0,0,1-3.72,0,20.714,20.714,0,0,1,3.7-.411l8.96-.678,8.96-.74a21.926,21.926,0,0,1,3.72-.185Z" transform="translate(-186.388 -3.648)" fill="#455a64"/>
    </g>
    <g id="Book" transform="translate(63.361 246.864)">
      <path id="Path_268" data-name="Path 268" d="M110.8,263.856l8.22,13.091s34.935-32.079,69.439-23.016C188.4,253.889,157.326,227.543,110.8,263.856Z" transform="translate(-49.113 -121.196)" fill="#1a7389"/>
      <path id="Path_269" data-name="Path 269" d="M148.56,265.061s25.585-27.784,63.11-21.454l10.275,1.541-3.247-5.9S153.369,216.892,148.56,265.061Z" transform="translate(-9.275 -132.368)" fill="#1a7389"/>
      <path id="Path_270" data-name="Path 270" d="M165.831,204.657S114.579,195.841,81,214.028l53.431,100.45S178.12,272.37,219.92,298.3Z" transform="translate(-80.553 -165.652)" fill="#f5f5f5"/>
      <path id="Path_271" data-name="Path 271" d="M166.061,204.818a3.538,3.538,0,0,1,.288.411l.76,1.274,2.959,4.994,11.1,19.03,39.292,67.816a.452.452,0,0,1-.617.617,56.452,56.452,0,0,0-19.667-7.542,61.654,61.654,0,0,0-11.077-.781,69.646,69.646,0,0,0-11.344,1.438A97.408,97.408,0,0,0,135.38,314.68l-.452.411a.493.493,0,0,1-.719,0v-.1L80.839,214.395A.39.39,0,0,1,81,213.84h0a103.347,103.347,0,0,1,34.155-10.172,173.549,173.549,0,0,1,27.332-1.192c7.583.267,13.481.863,17.468,1.356,2.055.247,3.535.473,4.562.658l1.171.206h-.021l-1.171-.144c-1.028-.123-2.548-.329-4.562-.534-4.11-.411-9.905-.925-17.447-1.11a174.493,174.493,0,0,0-27.229,1.377,103.1,103.1,0,0,0-33.846,10.275l.164-.555,53.431,100.45-.8-.144.452-.411a108.2,108.2,0,0,1,20.427-14.385,85.283,85.283,0,0,1,22.441-8.508,67.236,67.236,0,0,1,11.529-1.439,60.088,60.088,0,0,1,11.262.8,57.809,57.809,0,0,1,19.975,7.706l-.637.617c-15.988-27.928-29.428-51.376-38.861-67.816l-10.933-19.194-2.856-5.1c-.308-.575-.555-1.007-.719-1.336a3.451,3.451,0,0,1-.226-.432Z" transform="translate(-80.782 -165.814)" fill="#263238"/>
      <path id="Path_272" data-name="Path 272" d="M202.5,196.976s-38.758-24.66-79.9,20.55l54.006,93.689s11.015-38.018,75.5-24.8Z" transform="translate(-36.664 -178.584)" fill="#f5f5f5"/>
      <path id="Path_273" data-name="Path 273" d="M202.707,197.177a1.81,1.81,0,0,1,.267.391l.7,1.212,2.733,4.768,10.275,18.166,36.025,64.795a.394.394,0,0,1-.473.6h0l-9.6-1.582a43.965,43.965,0,0,0-4.953-.555l-5.055-.39a39.222,39.222,0,0,0-5.158-.144l-5.2.021c-1.767,0-3.514.349-5.281.514a39.355,39.355,0,0,0-5.3.8l-5.281,1.192-5.2,1.829a55.017,55.017,0,0,0-5.014,2.322,15.681,15.681,0,0,0-2.425,1.377L191.4,294.01c-1.562,1.048-2.959,2.322-4.418,3.494a46.662,46.662,0,0,0-3.884,4.11,32.367,32.367,0,0,0-5.754,9.864h0a.514.514,0,0,1-.658.308.493.493,0,0,1-.267-.226l-2.178-3.761c-19.091-33.189-36.99-64.117-51.766-89.948a.473.473,0,0,1,0-.514,90.915,90.915,0,0,1,29.243-21.989,58.4,58.4,0,0,1,27.6-5.179,56.676,56.676,0,0,1,17.653,3.946,43.711,43.711,0,0,1,4.316,2.055l1.069.617.329.247-.37-.185-1.089-.555c-.966-.473-2.4-1.171-4.336-1.911a57.684,57.684,0,0,0-44.882,1.623,90.585,90.585,0,0,0-28.894,21.927v-.493l51.889,90.01,2.261,3.72-.945.123a33.826,33.826,0,0,1,5.939-10.275,55.747,55.747,0,0,1,3.987-4.254c1.521-1.212,2.939-2.528,4.542-3.576l2.4-1.562a16.442,16.442,0,0,1,2.487-1.4c1.726-.8,3.35-1.767,5.117-2.384l5.281-1.829,5.384-1.212a36.992,36.992,0,0,1,5.384-.8c1.788-.164,3.555-.493,5.322-.514h5.281a36.478,36.478,0,0,1,5.2.123l5.1.432a39.913,39.913,0,0,1,4.994.555l9.659,1.623-.473.658c-14.734-26.715-27.044-49.095-35.716-64.857-4.295-7.83-7.686-14.036-10.008-18.31l-2.63-4.85c-.267-.534-.493-.945-.658-1.254A3.358,3.358,0,0,1,202.707,197.177Z" transform="translate(-36.871 -178.784)" fill="#263238"/>
      <path id="Path_274" data-name="Path 274" d="M88,184.62,145.808,295.9s46.957-2.055,66.85,20.838l-53.554-93.2S127.7,184.62,88,184.62Z" transform="translate(-73.167 -184.538)" fill="#f5f5f5"/>
      <path id="Path_275" data-name="Path 275" d="M88.011,184.662h1.48l4.439.185h1.562l1.706.288,3.863.637a31.151,31.151,0,0,1,4.418,1.069,50.433,50.433,0,0,1,4.953,1.459c13.81,4.6,32.346,15.742,48.992,34.935h0l53.636,93.134a.514.514,0,0,1-.185.7.493.493,0,0,1-.616,0h0L210,314.807a49.32,49.32,0,0,0-14.8-9.761,84.25,84.25,0,0,0-16.543-5.425,138.1,138.1,0,0,0-32.88-3.247h0a.493.493,0,0,1-.432-.247c-16.851-32.675-31.236-60.6-41.45-80.372-4.973-9.761-8.96-17.57-11.775-22.955-1.336-2.61-2.384-4.644-3.1-6.165l-.781-1.541-.247-.514a2.9,2.9,0,0,1,.308.555c.226.39.493.9.863,1.582l3.247,6.165,12.042,23.057,41.717,79.776-.432-.247a138.078,138.078,0,0,1,33.106,3.206,86.47,86.47,0,0,1,16.728,5.466,50.119,50.119,0,0,1,15.084,9.987l2.322,2.3-.822.6C192.283,282.4,173.89,250.3,158.724,223.81h0a134.811,134.811,0,0,0-25.3-22.893,97.47,97.47,0,0,0-23.181-12.084,50.768,50.768,0,0,0-4.932-1.5,30.4,30.4,0,0,0-4.377-1.11l-3.843-.7-1.665-.308-1.521-.123Z" transform="translate(-73.178 -184.58)" fill="#263238"/>
    </g>
    <g id="Stars" transform="translate(289.525 143.996)">
      <path id="Path_276" data-name="Path 276" d="M180.221,338.2l1.233,2.055a14.179,14.179,0,0,0,5.836,5.384l2.055,1.069-2.055,1.233a14.386,14.386,0,0,0-5.384,5.836l-1.069,2.158L179.6,353.88a14.18,14.18,0,0,0-5.836-5.384l-2.158-1.069,2.055-1.233a14.037,14.037,0,0,0,5.384-5.836Z" transform="translate(-57.659 141.032)" fill="#1a7389"/>
      <path id="Path_277" data-name="Path 277" d="M124.771,131.93l1.254,2.055a14.139,14.139,0,0,0,5.836,5.364l2.055,1.069-2.055,1.254a13.933,13.933,0,0,0-5.384,5.836l-1.069,2.055-1.233-2.055a14.1,14.1,0,0,0-5.857-5.384l-2.158-1.069,2.055-1.233a14.385,14.385,0,0,0,5.384-5.857Z" transform="translate(-116.16 -76.588)" fill="#1a7389"/>
      <path id="Path_278" data-name="Path 278" d="M381.308,167.52l1.233,2.055a14.1,14.1,0,0,0,5.857,5.384l2.158,1.069-2.055,1.233a14.179,14.179,0,0,0-5.364,5.857l-1.069,2.055-1.254-2.055a14.014,14.014,0,0,0-5.836-5.364l-2.178-1.028,2.055-1.254a13.933,13.933,0,0,0,5.384-5.836Z" transform="translate(154.602 -39.04)" fill="#1a7389"/>
      <path id="Path_279" data-name="Path 279" d="M351,351.15l1.233,2.055a14.179,14.179,0,0,0,5.857,5.364l2.158,1.069-2.055,1.254a14.2,14.2,0,0,0-5.384,5.836l-1.048,2.158L350.5,366.83a14.035,14.035,0,0,0-5.836-5.384l-2.158-1.069,2.055-1.233a14.1,14.1,0,0,0,5.384-5.857Z" transform="translate(122.645 154.694)" fill="#1a7389"/>
      <path id="Path_280" data-name="Path 280" d="M352.579,389.74l.6.247a3.843,3.843,0,0,0,2.055.205l.637-.123-.247.6a3.843,3.843,0,0,0-.206,2.055l.123.637-.6-.247a3.862,3.862,0,0,0-2.055-.205l-.637.123.247-.6a3.843,3.843,0,0,0,.206-2.055Z" transform="translate(132.921 195.408)" fill="#1a7389"/>
      <path id="Path_281" data-name="Path 281" d="M370.029,128.81l.575.247a3.9,3.9,0,0,0,2.055.206l.616-.123-.226.6a3.657,3.657,0,0,0-.206,2.055l.123.637-.6-.247a3.9,3.9,0,0,0-2.055-.205l-.616.123.226-.6a3.658,3.658,0,0,0,.206-2.055Z" transform="translate(151.331 -79.88)" fill="#1a7389"/>
      <path id="Path_282" data-name="Path 282" d="M131.8,105l.6.226a3.658,3.658,0,0,0,2.055.205h.637l-.247.575a3.9,3.9,0,0,0-.205,2.055l.123.617-.6-.226a3.658,3.658,0,0,0-2.055-.206l-.637.123.247-.6a3.9,3.9,0,0,0,.206-2.055Z" transform="translate(-100.008 -105)" fill="#1a7389"/>
      <path id="Path_283" data-name="Path 283" d="M161.169,308.16l.6.226a3.494,3.494,0,0,0,2.055.205l.637-.1-.247.6A3.842,3.842,0,0,0,164,311.14l.123.617-.6-.226a3.658,3.658,0,0,0-2.055-.206l-.637.123.247-.6a3.9,3.9,0,0,0,.206-2.055Z" transform="translate(-69.022 109.339)" fill="#1a7389"/>
      <path id="Path_284" data-name="Path 284" d="M256.223,386.69l-.575.6-1.706,1.706-6.638,6.556-24.66,23.777v-.247c1.295,25.79,2.939,60.726,4.665,99.771v.863l-.74-.473-8.9-5.96-56.39-37.751h-.123v-.123c-8.426-25.133-15.515-46.341-20.55-61.3-2.466-7.439-4.4-13.317-5.754-17.386l-1.48-4.624q-.247-.74-.37-1.171a.913.913,0,0,0-.1-.411l.164.37q.144.452.432,1.171c.37,1.089.9,2.61,1.6,4.583l5.96,17.324c5.1,14.94,12.33,36.086,20.838,61.178l-.164-.206,56.452,37.689,8.9,5.939-.7.39c-1.665-39.045-3.165-73.981-4.274-99.813V419h.1l24.825-23.551,6.761-6.35,1.767-1.623A3.631,3.631,0,0,1,256.223,386.69Z" transform="translate(-98.5 192.19)" fill="#1a7389"/>
      <path id="Path_285" data-name="Path 285" d="M105.511,410.25l-.185,5.816,4.685,3.453-5.59,1.623-1.829,5.528-3.267-4.829-5.816-.021,3.555-4.6L95.3,411.668l5.487,1.973Z" transform="translate(25.949 288.993)" fill="#1a7389"/>
      <path id="Path_286" data-name="Path 286" d="M70.035,391.03l.1,3.781,3.165,2.034-3.535,1.274-.966,3.637-2.3-2.98-3.761.206,2.117-3.1L63.5,392.366l3.617,1.048Z" transform="translate(-6.515 268.715)" fill="#1a7389"/>
      <path id="Path_287" data-name="Path 287" d="M54.888,350.11l2.836,3.637,4.624-.267L59.758,357.3l1.685,4.316-4.459-1.295-3.576,2.939-.144-4.624-3.9-2.487,4.357-1.582Z" transform="translate(-20.631 225.544)" fill="#1a7389"/>
      <path id="Path_288" data-name="Path 288" d="M113.567,348.33l2.836,3.658,4.624-.288-2.589,3.843,1.685,4.295-4.439-1.274-3.576,2.939-.164-4.624-3.884-2.507,4.336-1.562Z" transform="translate(41.299 223.666)" fill="#1a7389"/>
      <path id="Path_289" data-name="Path 289" d="M97.134,365.48l1.829,2.322,2.939-.185-1.665,2.445,1.089,2.754-2.836-.822-2.281,1.87-.1-2.939-2.487-1.582,2.774-1.007Z" transform="translate(26.065 241.759)" fill="#1a7389"/>
    </g>
    <g id="Planets" transform="translate(235.278 70.979)">
      <circle id="Ellipse_3" data-name="Ellipse 3" cx="40.977" cy="40.977" r="40.977" transform="translate(26.265 390.738)" fill="#2bc0e4"/>
      <g id="Group_28" data-name="Group 28" transform="translate(48.521 437.819)" opacity="0.3">
        <path id="Path_290" data-name="Path 290" d="M127.479,314.559a6.7,6.7,0,1,1-6.679-6.679,6.7,6.7,0,0,1,6.679,6.679Z" transform="translate(-114.08 -307.88)" fill="#2bc0e4"/>
      </g>
      <g id="Group_29" data-name="Group 29" transform="translate(44.657 421.337)" opacity="0.3">
        <path id="Path_291" data-name="Path 291" d="M120.009,303.744a3.9,3.9,0,1,1-3.9-3.884,3.9,3.9,0,0,1,3.9,3.884Z" transform="translate(-112.2 -299.86)" fill="#2bc0e4"/>
      </g>
      <path id="Path_292" data-name="Path 292" d="M117.947,342.8c.185.719-35.079,34.545-25.976,41.758s47.266-11.282,79.92-37.607,62.37-58.3,54.212-66.768-48.889,16.584-48.889,16.584l4.87,3.124s24.66-15.8,32.428-9.679-14.385,30.086-45.765,52.979-61.651,38.922-66.316,32.654S119.9,348.681,119.9,348.681Z" transform="translate(-90.469 98.878)" fill="#1a7389"/>
      <g id="Group_30" data-name="Group 30" transform="translate(0 377.318)" opacity="0.3">
        <path id="Path_293" data-name="Path 293" d="M117.947,342.8c.185.719-35.079,34.545-25.976,41.758s47.266-11.282,79.92-37.607,62.37-58.3,54.212-66.768-48.889,16.584-48.889,16.584l4.87,3.124s24.66-15.8,32.428-9.679-14.385,30.086-45.765,52.979-61.651,38.922-66.316,32.654S119.9,348.681,119.9,348.681Z" transform="translate(-90.469 -278.44)"/>
      </g>
      <g id="Group_31" data-name="Group 31" transform="translate(29.279 402.812)" opacity="0.3">
        <path id="Path_294" data-name="Path 294" d="M120.095,290.875c.329.39-2.445,2.754-5.59,7.48a37.71,37.71,0,0,0-.822,41.45c2.959,4.87,5.631,7.336,5.281,7.706s-3.494-1.6-7.151-6.453a36.05,36.05,0,0,1,.884-44.019C116.54,292.355,119.91,290.588,120.095,290.875Z" transform="translate(-104.717 -290.845)" fill="#fff"/>
      </g>
      <circle id="Ellipse_4" data-name="Ellipse 4" cx="33.805" cy="33.805" r="33.805" transform="translate(471.092 46.779) rotate(-43.78)" fill="#2bc0e4"/>
      <g id="Group_32" data-name="Group 32" transform="translate(529.909 29.486)" opacity="0.4">
        <path id="Path_295" data-name="Path 295" d="M348.331,114.564a5.487,5.487,0,1,1,1.519,3.937A5.507,5.507,0,0,1,348.331,114.564Z" transform="translate(-348.329 -109.181)"/>
      </g>
      <g id="Group_33" data-name="Group 33" transform="translate(540.924 44.57)" opacity="0.4">
        <path id="Path_296" data-name="Path 296" d="M353.691,119.684a3.206,3.206,0,1,1,.888,2.3,3.226,3.226,0,0,1-.888-2.3Z" transform="translate(-353.69 -116.52)"/>
      </g>
      <g id="Group_34" data-name="Group 34" transform="translate(535.418 57.597)" opacity="0.4">
        <path id="Path_297" data-name="Path 297" d="M352.223,122.86a1.151,1.151,0,0,1,1.151,1.192,1.213,1.213,0,0,1-1.212,1.171,1.192,1.192,0,0,1-1.151-1.212,1.171,1.171,0,0,1,1.212-1.151Z" transform="translate(-351.01 -122.86)"/>
      </g>
    </g>
  </g>
</svg>
