<svg xmlns="http://www.w3.org/2000/svg" xmlns:xlink="http://www.w3.org/1999/xlink" width="1227.581" height="1066.827" viewBox="0 0 1227.581 1066.827">
  <defs>
    <linearGradient id="linear-gradient" x1="0.5" x2="0.5" y2="1" gradientUnits="objectBoundingBox">
      <stop offset="0" stop-color="#2bc0e4"/>
      <stop offset="1" stop-color="#eaecc6"/>
    </linearGradient>
  </defs>
  <path id="Path_2" data-name="Path 2" d="M651.34-.181s66.7,255.409,210.766,315.53c3.639,1.855,128.348,70.823,131.585,72.6,241.964,132.709-93.969,367.333,155.073,361.327,252.578-6.092,479.507,389.483,729.131,305.722.276-.049-.62-362.122-.172-644.878C1878.1,174.046,1880.116,8.3,1877.895,0Z" transform="translate(-651.34 0.181)" fill="#b3eaf4" opacity="0.51"/>
  <path id="Path_1" data-name="Path 1" d="M822.374,0s71.44,181.383,238.942,297.88S1252.95,471.889,1224.56,569.217,1251.53,732.9,1446,794.839s.476,250.461,436.265,268.157c.475.019.034-14.1,0-40.456-.048-37.409.143-99.366.049-173.865-.141-111.528.6-252.331.238-386.4-.251-93.131.057-182.99-.158-258.535-.343-120.305.166-203.774.166-203.774Z" transform="translate(-655.074 0.181)" opacity="0.84" fill="url(#linear-gradient)"/>
</svg>
